<svg width="12" height="12" viewBox="0 0 12 12" fill="none" xmlns="http://www.w3.org/2000/svg">
<g clip-path="url(#clip0_942_287)">
<path d="M5.99901 10.498C8.48375 10.498 10.498 8.48375 10.498 5.99901C10.498 3.51428 8.48375 1.5 5.99901 1.5C3.51428 1.5 1.5 3.51428 1.5 5.99901C1.5 8.48375 3.51428 10.498 5.99901 10.498Z" fill="#CDCDCD" fill-opacity="0.05"/>
<path d="M9.54889 8.7643C10.0282 8.14891 10.3536 7.40532 10.4601 6.59467C10.4858 6.39941 10.4996 6.20019 10.4996 5.99704C10.4996 5.79783 10.4877 5.60256 10.4621 5.41124C10.1958 3.38165 8.57847 1.77613 6.54297 1.53156" stroke="#CDCDCD" stroke-width="1.2" stroke-miterlimit="10"/>
<path d="M5.35959 1.54333C4.56472 1.65576 3.83691 1.97726 3.23336 2.44866C2.92172 2.69126 2.64165 2.97726 2.40299 3.29284C1.94539 3.89836 1.63967 4.6242 1.53711 5.41316" stroke="#CDCDCD" stroke-width="1.2" stroke-miterlimit="10"/>
<path d="M8.70476 9.59465C8.08741 10.0601 7.34776 10.3698 6.54303 10.4664C6.36551 10.4881 6.18405 10.5 5.99865 10.5C5.78168 10.5 5.56867 10.4842 5.35959 10.4546C3.37143 10.1706 1.80141 8.58873 1.53711 6.59662" stroke="#CDCDCD" stroke-width="1.2" stroke-miterlimit="10"/>
<path d="M4.375 5.50391V7.6755" stroke="#CDCDCD" stroke-width="1.2" stroke-miterlimit="10"/>
<path d="M5.95703 3.94775V7.67556" stroke="#CDCDCD" stroke-width="1.2" stroke-miterlimit="10"/>
<path d="M7.52753 4.73474V7.67557" stroke="#CDCDCD" stroke-width="1.2" stroke-miterlimit="10"/>
</g>
<defs>
<clipPath id="clip0_942_287">
<rect width="12" height="12" fill="white"/>
</clipPath>
</defs>
</svg>
