<svg width="12" height="12" viewBox="0 0 12 12" fill="none" xmlns="http://www.w3.org/2000/svg">
<g clip-path="url(#clip0_942_306)">
<path d="M1.5 4.43313L2.34463 3.06086L3.56643 3.43602C3.56643 3.43602 4.14021 2.94449 4.89255 2.71378L5.1333 1.5H6.80651L7.10745 2.72782C7.10745 2.72782 7.75546 2.87227 8.40348 3.42198C9.62528 3.06086 9.62528 3.06086 9.62528 3.06086L10.5 4.43313L9.5049 5.29982C9.5049 5.29982 9.68547 5.70508 9.55105 6.73027C10.4258 7.49666 10.5 7.53879 10.5 7.53879L9.62528 8.95519L8.40348 8.53589C8.40348 8.53589 7.90593 9.05551 7.12149 9.28622C6.82055 10.5 6.82055 10.5 6.82055 10.5H5.1634L4.86246 9.24409C4.86246 9.24409 4.21444 9.12773 3.59652 8.56598L2.34463 8.92711L1.5 7.56888L2.50914 6.68814C2.50914 6.68814 2.29848 6.24075 2.4329 5.24365L1.5 4.43313Z" stroke="#CDCDCD" stroke-width="1.2" stroke-miterlimit="10"/>
<path d="M6.29922 4.5L5.69922 7.8" stroke="#CDCDCD" stroke-width="1.2" stroke-miterlimit="10"/>
<path d="M5.09961 4.79999L3.59961 5.97716L5.09961 7.19999" stroke="#CDCDCD" stroke-width="1.2" stroke-miterlimit="10"/>
<path d="M7.19922 4.79999L8.39922 5.97716L7.19922 7.19999" stroke="#CDCDCD" stroke-width="1.2" stroke-miterlimit="10"/>
</g>
<defs>
<clipPath id="clip0_942_306">
<rect width="12" height="12" fill="white"/>
</clipPath>
</defs>
</svg>
