<svg width="12" height="12" viewBox="0 0 12 12" fill="none" xmlns="http://www.w3.org/2000/svg">
<g clip-path="url(#clip0_942_313)">
<path d="M3.82089 9.64783C3.82089 9.64783 3.13777 10.2066 1.8531 10.2066C1.692 9.25223 2.04478 8.48958 2.30783 8.22449" stroke="#CDCDCD" stroke-width="1.2" stroke-miterlimit="10"/>
<path d="M2.74609 6.99081L4.93412 9.21554C4.93412 9.21554 10.3665 7.27017 10.5418 1.54419C8.61889 1.2424 4.70777 2.42511 2.74609 6.99081Z" stroke="#CDCDCD" stroke-width="1.2" stroke-miterlimit="10"/>
<path d="M7.75586 5.1413C8.26716 5.1413 8.68164 4.72681 8.68164 4.21552C8.68164 3.70422 8.26716 3.28973 7.75586 3.28973C7.24456 3.28973 6.83008 3.70422 6.83008 4.21552C6.83008 4.72681 7.24456 5.1413 7.75586 5.1413Z" fill="#CDCDCD" fill-opacity="0.05" stroke="#CDCDCD" stroke-width="1.2" stroke-miterlimit="10"/>
<path d="M5.0957 3.58746C5.0957 3.58746 3.91706 2.89007 3.22171 3.44676C2.52635 4.00345 1.17642 5.13927 1.50881 5.25754C1.84119 5.37581 3.27677 5.87541 3.27677 5.87541" stroke="#CDCDCD" stroke-width="1.2" stroke-miterlimit="10"/>
<path d="M8.3445 6.87665C8.3445 6.87665 9.0419 8.05529 8.4852 8.75064C7.92647 9.446 6.79269 10.7959 6.67442 10.4635C6.55615 10.1312 6.05859 8.69558 6.05859 8.69558" stroke="#CDCDCD" stroke-width="1.2" stroke-miterlimit="10"/>
</g>
<defs>
<clipPath id="clip0_942_313">
<rect width="12" height="12" fill="white"/>
</clipPath>
</defs>
</svg>
